<?xml version="1.0" encoding="UTF-8"?>
<svg width="20px" height="20px" viewBox="0 0 20 20" version="1.1" xmlns="http://www.w3.org/2000/svg" xmlns:xlink="http://www.w3.org/1999/xlink">
    <title>icon-check</title>
    <g id="Bink-3.0-app-VD" stroke="none" stroke-width="1" fill="none" fill-rule="evenodd">
        <g id="07-Form---auth-only" transform="translate(-326.000000, -263.000000)">
            <g id="Group-2-Copy-3" transform="translate(24.000000, 243.000000)">
                <g id="icon-check" transform="translate(302.000000, 20.000000)">
                    <path d="M10,0 C4.4771525,0 0,4.4771525 0,10 C0,15.5228475 4.4771525,20 10,20 C15.5228475,20 20,15.5228475 20,10 C20,7.3478351 18.9464316,4.80429597 17.0710678,2.92893219 C15.195704,1.0535684 12.6521649,0 10,0 Z" id="Shape" fill="#1EA9AC" fill-rule="nonzero"></path>
                    <path d="M15.676,8.237 L9.676,13.737 C9.28132309,14.0988982 8.67161247,14.0856724 8.293,13.707 L5.293,10.707 C5.03304342,10.4559255 4.9287874,10.0841221 5.02030284,9.73449268 C5.11181828,9.38486324 5.38486324,9.11181828 5.73449268,9.02030284 C6.08412211,8.9287874 6.45592553,9.03304342 6.707,9.293 L9.03,11.616 L14.324,6.763 C14.5873047,6.52148846 14.9594532,6.438794 15.3002607,6.54606683 C15.6410682,6.65333965 15.898758,6.93428246 15.9762607,7.28306683 C16.0537635,7.63185119 15.9393047,7.99548846 15.676,8.237 L15.676,8.237 Z" id="Path" fill="#FFFFFF"></path>
                </g>
            </g>
        </g>
    </g>
</svg>