<svg xmlns="http://www.w3.org/2000/svg"  viewBox="0 0 100 100" width="200px" height="200px"><path d="M18.534,81.461h21.352V65.728H18.534V81.461z M20.782,67.975h16.856v11.238H20.782V67.975z M25.978,32.717	c0.093,0,0.189-0.003,0.284-0.008c1.301-0.073,2.625-0.624,3.729-1.553c1.103-0.928,1.873-2.139,2.167-3.408	c0.035-0.153,0.061-0.305,0.081-0.457c0.361,0.107,0.722,0.167,1.071,0.167c0.682,0,1.322-0.208,1.839-0.643	c0.782-0.659,1.097-1.683,0.967-2.79c0.06,0.002,0.118,0.009,0.179,0.009c0.094,0,0.189-0.003,0.284-0.008	c1.301-0.073,2.625-0.624,3.729-1.553c2.37-1.995,3.001-5.16,1.405-7.057v0c-1.596-1.898-4.823-1.817-7.193,0.178	c-1.104,0.928-1.873,2.139-2.168,3.408c-0.036,0.153-0.061,0.305-0.081,0.455c-1.067-0.315-2.129-0.179-2.911,0.477	c-0.782,0.658-1.096,1.682-0.967,2.788c-0.152-0.006-0.306-0.008-0.463,0c-1.301,0.073-2.625,0.624-3.729,1.553	c-2.37,1.995-3,5.161-1.405,7.057C23.544,32.222,24.691,32.717,25.978,32.717z M25.649,25.996c0.724-0.609,1.601-0.983,2.408-1.029	c0.048-0.003,0.102-0.004,0.159-0.004c0.42,0,1.047,0.094,1.458,0.58c0.001,0.001,0.002,0.001,0.002,0.002v0.001	c0.468,0.555,0.384,1.3,0.293,1.694c-0.183,0.787-0.702,1.587-1.426,2.196c-0.723,0.609-1.601,0.983-2.407,1.029	c-0.406,0.025-1.153-0.024-1.619-0.578C23.733,28.955,24.252,27.173,25.649,25.996z M30.809,21.655	c0.091-0.075,0.229-0.116,0.4-0.116c0.492,0,1.251,0.333,1.907,1.112c0.883,1.05,0.937,2.149,0.587,2.444	c-0.352,0.291-1.424,0.053-2.307-0.996C30.514,23.049,30.459,21.951,30.809,21.655z M34.544,19.51	c0.183-0.787,0.702-1.587,1.426-2.196c0.807-0.68,1.763-1.035,2.578-1.035c0.596,0,1.117,0.19,1.448,0.585	c0.784,0.933,0.265,2.714-1.132,3.89c-0.724,0.608-1.601,0.983-2.408,1.029c-0.406,0.023-1.152-0.023-1.619-0.579	C34.368,20.649,34.452,19.905,34.544,19.51z M40.099,33.745l-0.697-0.877l1.753-1.416l0.697,0.876l0.708,0.877l-1.753,1.416	C40.099,33.745,40.807,34.621,40.099,33.745z M46.404,46.646c-2.225-0.258,0,0-2.225-0.258l0.259-2.236l2.236,0.27L46.404,46.646z M37.155,30.62l-0.854-0.719l1.449-1.719l1.72,1.45l-1.45,1.719C37.155,30.62,38.02,31.351,37.155,30.62z M44.527,51.174	c-1.989-1.056,0,0-1.989-1.056l0.539-0.989l0.529-0.989l1.978,1.057L44.527,51.174z M43.763,40.117l2.192-0.528l0.528,2.18	l-2.191,0.528c-0.258-1.091,0,0-0.258-1.091L43.763,40.117z M39.796,53.254l0.786-0.798h-0.011l0.787-0.798l1.607,1.574	l-1.573,1.596C39.796,53.254,41.392,54.827,39.796,53.254z M61.457,33.877c0.115,0.106,0.233,0.204,0.354,0.296	c-0.005,0.004-0.012,0.008-0.016,0.013c-0.815,0.792-1.182,1.796-1.004,2.753c0.188,1.009,0.926,1.791,1.957,2.224	c-0.725,1.183-1.033,2.763-0.729,4.406c0.514,2.771,2.579,4.767,4.782,4.767c0.219,0,0.44-0.02,0.66-0.061	c1.225-0.227,2.284-1.078,2.907-2.335c0.58-1.167,0.753-2.591,0.491-4.009c-0.305-1.644-1.157-3.01-2.258-3.853	c0.807-0.773,1.218-1.768,1.031-2.776c-0.178-0.958-0.878-1.763-1.923-2.211c-0.011-0.005-0.024-0.007-0.035-0.012	c0.727-1.182,1.035-2.764,0.73-4.407c-0.262-1.419-0.935-2.686-1.893-3.568c-1.032-0.95-2.329-1.365-3.55-1.139	c-1.224,0.227-2.282,1.077-2.906,2.335c-0.58,1.167-0.753,2.591-0.491,4.009C59.826,31.727,60.498,32.995,61.457,33.877z M62.068,27.299c0.179-0.362,0.587-0.991,1.302-1.123h0.001c0.089-0.017,0.177-0.024,0.263-0.024c0.597,0,1.093,0.367,1.354,0.606	c0.595,0.547,1.034,1.394,1.206,2.324c0.332,1.797-0.399,3.502-1.597,3.724c-0.701,0.135-1.319-0.307-1.617-0.582	c-0.595-0.547-1.033-1.395-1.206-2.324C61.601,28.97,61.709,28.022,62.068,27.299z M65.706,34.951c0.411,0,0.799,0.07,1.117,0.206	c0.337,0.144,0.561,0.352,0.598,0.555c0.081,0.439-0.677,1.268-2.006,1.514C64.087,37.471,63.083,36.97,63,36.53	c-0.081-0.439,0.677-1.268,2.006-1.514C65.242,34.972,65.478,34.951,65.706,34.951z M66.09,39.412c1.117,0,2.25,1.265,2.558,2.93	c0.173,0.93,0.065,1.878-0.294,2.601c-0.179,0.363-0.587,0.991-1.302,1.123c-1.197,0.217-2.49-1.109-2.823-2.906	c-0.333-1.797,0.398-3.502,1.597-3.724C65.913,39.42,66.001,39.412,66.09,39.412z M28.94,51.455l2.214,0.36l-0.36,2.225	c-2.213-0.359,0,0-2.213-0.359L28.94,51.455z M56.451,38.555l-1.068-0.349l0.697-2.135l2.134,0.697l-0.697,2.135	C56.451,38.555,57.517,38.903,56.451,38.555z M31.626,49.803c-2.135-0.708,0,0-2.135-0.708l0.708-2.135l2.135,0.708L31.626,49.803z M38.717,39.757c-1-2.012,0,0-1-2.012l2.012-1.011l1,2.011L38.717,39.757z M35.503,42.386c-1.539-1.63,0,0-1.539-1.63l1.641-1.55	l1.539,1.641l-0.821,0.775L35.503,42.386z M52.259,37.667l-1.113-0.158l0.293-2.225l2.236,0.304l-0.303,2.225	C52.259,37.667,53.371,37.813,52.259,37.667z M33.143,45.836c-1.921-1.146,0,0-1.921-1.146l1.146-1.933l1.933,1.157L33.143,45.836z M46.82,37.42c-0.045-2.248,0,0-0.045-2.248l2.247-0.034l0.045,2.248L46.82,37.42z M42.122,35.913l0.964-0.207l0.846-0.456	l0.134,0.246l0.259-0.056l0.184,0.856l0.502,0.93l-0.272,0.146l0.058,0.27l-0.933,0.2l-0.841,0.452	c-0.055-0.102-0.096-0.179-0.13-0.244l-0.298,0.064c-0.141-0.661-0.197-0.922-0.22-1.028l-0.42-0.771l0.229-0.123	C42.164,36.108,42.145,36.02,42.122,35.913z M81.466,69.099v-2.247v-5.619v-4.495h-32.59h-2.248h-32.59v4.495v24.723h30.342h2.247	h2.248h2.247h30.342V75.842h4.495v-6.743H81.466z M83.713,73.594h-2.247v-2.248h2.247V73.594z M79.219,75.842v7.867H53.371v-14.61	h4.339c5.389,1.506,11.78,1.506,17.169,0h4.34V75.842z M16.287,58.985h30.342v3.372h-2.247v-1.124H16.287V58.985z M74.724,66.852	l-0.309,0.043c-5.009,1.431-11.232,1.431-16.24,0l-4.804-0.03v-2.261V63.48h4.339c5.389,1.506,11.78,1.506,17.169,0h4.34v3.372	H74.724z M79.219,61.233h-4.495l-0.309,0.043c-5.009,1.431-11.232,1.431-16.24,0l-7.052-0.043v1.124h-2.247v-3.372h30.342V61.233z M16.287,83.708V63.48h25.847v1.124v19.104H16.287z M44.381,64.604h2.247v19.104h-2.247V64.604z M48.876,64.604h2.247v2.247v16.857	h-2.247V64.604z"/></svg>